<svg xmlns="http://www.w3.org/2000/svg">
<defs>
<font horiz-adv-x="1205" ><font-face
    font-family="caviar-dreams-bold"
    units-per-em="2048"
    panose-1="2 11 8 2 2 2 4 2 5 4"
    ascent="2009"
    descent="-584"
    alphabetic="0" />
<missing-glyph horiz-adv-x="1835" d="M942 291Q942 313 938 313H917V281H936V291H942ZM1481 819Q1481 842 1475 842H1454V811H1473V819H1481ZM1104 1268Q1112 1268 1118 1278Q1128 1292 1128 1317Q1126 1339 1118 1354Q1110 1364 1102 1364Q1092 1364 1085 1354Q1075
1341 1075 1317Q1077 1292 1085 1280Q1094 1268 1104 1268ZM1456 930Q1468 930 1475 940Q1483 952 1483 979Q1483 1001 1473 1016Q1466 1026 1456 1026Q1446 1026 1440 1016Q1432 1001 1432 979Q1432 954 1442 940Q1448 930 1456 930ZM377 557Q389 557 395 567Q403
582 403 606Q403 631 393 643Q387 653 377 653Q365 653 358 643Q350 633 350 606Q350 582 360 569Q367 557 377 557ZM754 229Q764 244 764 268Q764 293 756 305Q748 315 737 315Q727 315 719 305Q711 293 711 268Q711 242 719 229Q725 219 735 219Q745 219 754
229ZM401 811Q401 831 395 831H375V801H393V811H401ZM958 291V250H936V260H917V225Q917 217 932 217V201H868V217Q881 217 881 221V313Q881 317 868 317V334H969V291H958ZM1294 315H1286V334H1335V315Q1325 315 1323 309L1294 258V221Q1294 217 1307 217V201H1247V217Q1260
217 1260 221V258L1231 309Q1227 315 1219 315V334H1276V315H1268L1280 289L1294 315ZM580 1366H573V1384H618V1366Q610 1366 606 1360L582 1307V1270Q582 1266 594 1266V1249H530V1266Q545 1266 545 1270V1307L514 1360Q512 1366 506 1366V1384H559V1366H551L567
1337L580 1366ZM395 1196H387V1214H434V1196Q426 1196 424 1190L395 1139V1102Q395 1098 408 1098V1079H346V1098Q358 1098 358 1102V1139L332 1190Q328 1196 319 1196V1214H375V1196H367L381 1167L395 1196ZM1497 819V780H1473V788H1454V756Q1454 748 1468 748V729H1407V748Q1419
748 1419 752V842Q1419 846 1407 846V864H1507V819H1497ZM1475 485H1466V504H1516V485Q1505 485 1503 479L1475 428V391Q1475 387 1487 387V371H1427V387Q1440 387 1440 391V428L1411 479Q1407 485 1399 485V504H1454V485H1448L1460 459L1475 485ZM350 1319V1272Q350

<glyph unicode=" " glyph-name="space" horiz-adv-x="708" />
<glyph unicode="!" glyph-name="exclam" horiz-adv-x="541" d="M330 277T372 235T415 133Q415 71 373 29T270 -13Q211 -13 168 29T125 133Q125 193 168 235T270 277Q330 277 372 235ZM372 1600V455H165V1600H372Z" />
<glyph unicode="&quot;" glyph-name="quotedbl" horiz-adv-x="574" d="M25 920V1597H232V920H25ZM342 920V1597H549V920H342Z" />
<glyph unicode="#" glyph-name="numbersign" horiz-adv-x="1705" d="M873 1033H957L1059 1443H1270L1168 1033H1579L1526 826H1116L1094 738H1505L1452 531H1042L940 120H729L831 531H747L645 120H433L536 531H125L178 738H588L610 826H199L252 1033H662L764 1443H975L873
1033ZM905 826H821L799 738H883L905 826Z" />
<glyph unicode="$" glyph-name="dollar" horiz-adv-x="958" d="M571 117V0H387V117Q268 139 177 220Q78 308 50 475L262 543Q279 397 331 351Q357 328 387 314V728Q272 771 178 854Q54 963 54 1117Q54 1271 179 1382Q269 1462 387 1484V1600H571V1484Q690 1462
781 1381Q880 1293 908 1126L696 1058Q679 1204 627 1250Q601 1273 571 1287V873Q686 830 780 747Q904 638 904 484Q904 330 780 220Q689 139 571 117ZM387 946V1287Q358 1274 333 1252Q271 1197 271 1117Q271 1039 331 985Q354 965 387 946ZM571 655V314Q600 327
626 350Q687 404 687 484Q687 562 627 616Q604 636 571 655Z" />
<glyph unicode="%" glyph-name="percent" horiz-adv-x="1263" d="M1176 1290L258 -21L88 97L1005 1407L1176 1290ZM469 1245T549 1165T630 970Q630 856 550 776T355 695Q241 695 161 775T80 970Q80 1084 160 1164T355 1245Q469 1245 549 1165ZM355 1040Q326 1040
306 1020T285 970Q285 940 305 920T355 899Q384 899 405 919T426 970Q426 999 405 1019T355 1040ZM1023 692T1103 612T1184 417Q1184 302 1104 222T908 141Q794 141 714 221T633 417Q633 531 713 611T908 692Q1023 692 1103 612ZM908 487Q879 487 859 467T838 417Q838
387 858 367T908 346Q937 346 958 366T979 417Q979 446 958 466T908 487Z" />
<glyph unicode="&amp;" glyph-name="ampersand" horiz-adv-x="1340" d="M1211 725T1240 621Q1250 585 1250 551Q1250 484 1215 424Q1161 329 1039 293Q1017 220 927 130Q781 -17 574 -17Q368 -17 222 129T75 483Q75 688 218 841Q304 925 376 934Q221 1090 221
1245Q221 1398 330 1508T595 1618Q750 1618 860 1509Q922 1449 964 1318L776 1244Q742 1336 714 1364Q665 1412 595 1412Q526 1412 477 1364T428 1245Q428 1174 479 1119T574 1047T752 1029V830L630 829Q453 794 367 700T280 483Q280 361 366 275T574 189Q695 189
834 331Q806 354 735 428Q709 452 694 462Q680 471 671 471H670Q660 470 656 460Q654 456 654 452Q654 445 658 437L488 322Q467 353 456 392Q448 423 448 453Q448 510 478 563Q525 644 614 668Q645 677 676 677Q733 677 785 647Q829 622 885 554T991 479Q998 478
1004 478Q1042 478 1058 513Q1062 522 1062 532Q1062 564 1016 602L1118 779Q1211 725 1240 621Z" />
<glyph unicode="&apos;" glyph-name="quotesingle" horiz-adv-x="458" d="M125 920V1597H332V920H125Z" />
<glyph unicode="(" glyph-name="parenleft" horiz-adv-x="788" d="M688 1524Q541 1456 450 1342Q296 1148 296 800Q296 451 450 258Q541 143 688 72V-133Q434 -45 302 121Q100 373 100 800Q100 1227 302 1479Q434 1645 688 1733V1524Z" />
<glyph unicode=")" glyph-name="parenright" horiz-adv-x="788" d="M100 1733Q354 1645 486 1479Q688 1227 688 800Q688 373 486 121Q354 -45 100 -133V72Q247 143 338 258Q492 451 492 800Q492 1148 338 1342Q247 1456 100 1524V1733Z" />
<glyph unicode="*" glyph-name="asterisk" horiz-adv-x="932" d="M569 1428L713 1538L832 1368L646 1228L832 1089L713 919L569 1029V860H362V1030L217 919L98 1089L284 1228L98 1368L217 1538L362 1427V1597H569V1428Z" />
<glyph unicode="+" glyph-name="plus" horiz-adv-x="1112" d="M452 505H125V712H452V1039H660V712H987V505H660V177H452V505Z" />
<glyph unicode="," glyph-name="comma" horiz-adv-x="537" d="M438 278L207 -202H10L138 278H438Z" />
<glyph unicode="-" glyph-name="hyphen" horiz-adv-x="919" d="M125 712H793V505H125V712Z" />
<glyph unicode="." glyph-name="period" horiz-adv-x="490" d="M305 277T347 235T390 133Q390 71 348 29T245 -13Q186 -13 143 29T100 133Q100 193 143 235T245 277Q305 277 347 235Z" />
<glyph unicode="/" glyph-name="slash" horiz-adv-x="855" d="M674 1600H905L180 0H-50L674 1600Z" />
<glyph unicode="0" glyph-name="zero" horiz-adv-x="1289" d="M1001 1032Q1001 1179 897 1283T644 1387Q497 1387 393 1283T288 1032V543Q288 395 392 291T644 187Q792 187 896 291T1001 543V1032ZM1213 543Q1213 308 1047 142T644 -25Q409 -25 243 141T76 543V1032Q76
1267 242 1433T644 1600Q880 1600 1046 1434T1213 1032V543Z" />
<glyph unicode="1" glyph-name="one" horiz-adv-x="1427" d="M893 1600V0H686V1330H533L743 1600H893Z" />
<glyph unicode="2" glyph-name="two" horiz-adv-x="1308" d="M209 383T372 504T650 712T855 897T946 1117Q946 1238 861 1323T654 1408Q535 1408 449 1323Q376 1250 358 1071L151 1146Q183 1354 300 1472Q447 1620 654 1620Q863 1620 1009 1473T1156 1117Q1156
911 1014 758Q924 661 805 572T539 372Q411 277 396 208H1156V0H153Q209 383 372 504Z" />
<glyph unicode="3" glyph-name="three" horiz-adv-x="1308" d="M599 824L474 827V1032Q610 1034 653 1050T747 1121T798 1245Q798 1314 750 1361T633 1409Q565 1409 517 1362Q490 1334 455 1240L262 1316Q305 1451 367 1510Q478 1620 633 1620Q791 1620 901 1509T1011
1245Q1011 1089 826 944Q915 938 1013 843Q1156 689 1156 483Q1156 275 1010 128T654 -20Q447 -20 300 128Q183 246 151 455L358 530Q376 350 449 277Q535 192 654 192Q775 192 860 277T946 483Q946 605 861 698T599 824Z" />
<glyph unicode="4" glyph-name="four" horiz-adv-x="1350" d="M854 1600H1035V639H1176V432H1035V0H828V432H173L854 1600ZM828 1133L533 639H828V1133Z" />
<glyph unicode="5" glyph-name="five" horiz-adv-x="1314" d="M450 1168Q506 1180 567 1180Q679 1180 782 1144Q1013 1065 1126 852Q1197 720 1197 580Q1197 493 1170 406Q1099 174 886 59Q756 -10 617 -10Q529 -10 439 18Q253 75 117 260L263 422Q374 258 501
220Q559 202 614 202Q702 202 786 246Q923 319 968 468Q986 525 986 581Q986 668 941 753Q867 891 717 943Q652 966 573 966Q466 966 299 913L174 1022L354 1519V1600H940V1393H529L450 1168Z" />
<glyph unicode="6" glyph-name="six" horiz-adv-x="1291" d="M292 543Q292 395 396 291T649 187Q796 187 900 291T1005 543Q1005 691 901 795T649 899Q501 899 397 795T292 543ZM412 987Q501 1083 707 1083Q914 1083 1051 946Q1217 779 1217 543Q1217 308 1051
142T649 -25Q414 -25 247 141Q87 302 86 588V591Q86 874 239 1089Q393 1305 655 1600H927Q564 1224 412 987Z" />
<glyph unicode="7" glyph-name="seven" horiz-adv-x="1304" d="M1143 1274T895 996T510 524T364 0H153Q165 409 319 624T686 1078T915 1393H155V1600H1150Q1143 1274 895 996Z" />
<glyph unicode="8" glyph-name="eight" horiz-adv-x="1294" d="M647 192Q805 192 890 277T976 483Q976 605 891 696Q807 788 647 821Q486 788 402 696Q318 605 318 483Q318 362 403 277T647 192ZM647 -20Q401 -20 254 127T107 483Q107 739 388 944Q253 1089 253
1245Q253 1398 362 1509T630 1620H663Q821 1620 931 1509T1041 1245Q1041 1089 895 947Q1187 739 1187 483Q1187 275 1040 128T647 -20ZM642 1408Q635 1409 630 1409Q562 1409 514 1362T466 1245Q466 1175 516 1121T608 1051Q630 1043 647 1040Q664 1043 686 1051Q726
1067 777 1121T828 1245Q828 1314 780 1361T663 1409Q659 1409 652 1408H642Z" />
<glyph unicode="9" glyph-name="nine" horiz-adv-x="1291" d="M1012 1057Q1012 1205 908 1309T655 1413Q508 1413 404 1309T299 1057Q299 909 403 805T655 701Q803 701 907 805T1012 1057ZM892 613Q803 517 597 517Q390 517 253 654Q87 821 87 1057Q87 1292 253
1458T655 1625Q890 1625 1057 1459Q1217 1298 1218 1012V1009Q1218 726 1065 511Q911 295 649 0H377Q740 376 892 613Z" />
<glyph unicode=":" glyph-name="colon" horiz-adv-x="541" d="M330 277T372 235T415 133Q415 71 373 29T270 -13Q211 -13 168 29T125 133Q125 193 168 235T270 277Q330 277 372 235ZM330 846T372 804T415 702Q415 640 373 598T270 556Q211 556 168 598T125 702Q125
762 168 804T270 846Q330 846 372 804Z" />
<glyph unicode=";" glyph-name="semicolon" horiz-adv-x="635" d="M511 278L280 -202H83L211 278H511ZM345 846T388 804T431 702Q431 640 388 598T286 556Q226 556 184 598T141 702Q141 762 183 804T286 846Q345 846 388 804Z" />
<glyph unicode="&lt;" glyph-name="less" horiz-adv-x="1504" d="M1403 107L100 582L1403 1056V835L706 582L1403 328V107Z" />
<glyph unicode="=" glyph-name="equal" horiz-adv-x="1112" d="M125 860H987V652H125V860ZM125 564H987V357H125V564Z" />
<glyph unicode="&gt;" glyph-name="greater" horiz-adv-x="1504" d="M100 328L797 582L100 835V1056L1403 582L100 107V328Z" />
<glyph unicode="?" glyph-name="question" horiz-adv-x="1028" d="M127 1186Q127 1260 163 1332Q231 1472 377 1523Q441 1545 503 1545Q585 1545 664 1507Q804 1440 855 1295Q876 1232 876 1170Q876 1087 838 1008Q775 878 634 769Q538 684 488 579Q458 517 457
456H251Q252 564 303 668Q383 835 541 954Q617 1029 651 1098Q668 1135 668 1171Q668 1198 659 1226Q635 1292 573 1322Q537 1339 501 1339Q474 1339 445 1329Q379 1306 349 1244Q340 1225 336 1187L127 1119V1186ZM518 133Q518 71 475 29T373 -13Q313 -13 271
29T228 133Q228 193 270 235T373 277Q432 277 475 235T518 133Z" />
<glyph unicode="@" glyph-name="at" horiz-adv-x="1643" d="M1013 515V623Q1003 668 963 708Q905 766 824 766Q743 766 686 708T629 569Q629 487 686 430T824 373Q906 373 963 430Q1003 470 1013 515ZM958 212T822 212Q658 212 542 309T425 570Q425 733 541 835T822
937Q968 937 1011 863V915H1210L1208 417V414Q1208 362 1224 362Q1238 362 1264 398Q1321 479 1321 646Q1321 813 1195 939T822 1065Q577 1065 452 939T326 587Q326 361 471 216T822 70Q963 70 1064 133L1206 -16Q1013 -129 822 -129Q535 -129 330 75T125 568Q125
855 330 1059T822 1264Q1111 1264 1314 1059T1518 643Q1518 432 1409 301Q1319 194 1210 194Q1186 194 1161 200Q1022 229 1011 294Q958 212 822 212Z" />
<glyph unicode="A" glyph-name="A" horiz-adv-x="1376" d="M825 773L688 1148L552 773H825ZM744 1600L1326 0H1106L900 566H476L271 0H50L632 1600H744Z" />
<glyph unicode="B" glyph-name="B" horiz-adv-x="1126" d="M474 1600Q613 1600 712 1502T811 1264Q811 1121 667 1087Q771 1072 903 939T1036 571Q1036 336 871 165Q716 4 560 2V0H150V1600H474ZM357 927V208H560V211Q624 215 719 314Q824 422 824 571Q824 718
720 822T468 927H357ZM357 1393V1140H492Q538 1144 571 1175Q607 1208 607 1264Q607 1320 570 1356T474 1393H357Z" />
<glyph unicode="C" glyph-name="C" horiz-adv-x="1642" d="M1388 381L1543 242Q1259 -17 942 -17Q603 -17 364 222T125 800Q125 1138 364 1378T942 1618Q1259 1618 1543 1359L1388 1218Q1174 1408 942 1408Q691 1408 513 1230T334 800Q334 547 512 369T942 191Q1174
191 1388 381Z" />
<glyph unicode="D" glyph-name="D" horiz-adv-x="1250" d="M357 1389V210Q604 210 762 369Q940 547 940 800Q940 1052 762 1231Q604 1389 357 1389ZM302 1600Q692 1598 910 1379Q1149 1138 1149 800Q1149 461 910 221Q692 2 302 0H150V1600H302Z" />
<glyph unicode="E" glyph-name="E" horiz-adv-x="1137" d="M1012 1600V1393H357V904H1012V697H357V208H1012V0H150V1600H1012Z" />
<glyph unicode="F" glyph-name="F" horiz-adv-x="1045" d="M920 1600V1393H357V904H920V697H357V0H150V1600H920Z" />
<glyph unicode="G" glyph-name="G" horiz-adv-x="1668" d="M1507 219Q1260 -17 942 -17Q603 -17 364 222T125 800Q125 1138 364 1378T942 1618Q1259 1618 1543 1359L1388 1218Q1174 1408 942 1408Q691 1408 513 1230T334 800Q334 547 512 369T942 191Q1158 191
1300 305V788H1507V219Z" />
<glyph unicode="H" glyph-name="H" horiz-adv-x="1208" d="M357 662V0H150V1600H357V869H851V1600H1058V0H851V662H357Z" />
<glyph unicode="I" glyph-name="I" horiz-adv-x="548" d="M377 1600V0H170V1600H377Z" />
<glyph unicode="J" glyph-name="J" horiz-adv-x="937" d="M781 343Q781 177 690 85Q593 -13 455 -13Q318 -13 222 84T125 344L289 408Q317 256 360 221Q392 194 446 194H450Q507 195 544 231Q574 262 574 352V1600H781V343Z" />
<glyph unicode="K" glyph-name="K" horiz-adv-x="1206" d="M357 755V0H150V1600H357V1096L735 1600H997L506 942L1117 0H866L371 772L357 755Z" />
<glyph unicode="L" glyph-name="L" horiz-adv-x="1019" d="M150 0V1600H357V208H929V0H150Z" />
<glyph unicode="M" glyph-name="M" horiz-adv-x="1812" d="M388 1600L907 703L1424 1600H1613V0H1406V1156L907 292L406 1156V0H199V1600H388Z" />
<glyph unicode="N" glyph-name="N" horiz-adv-x="1357" d="M150 1600H339L999 458V1600H1207V0H1026L357 1156V0H150V1600Z" />
<glyph unicode="O" glyph-name="O" horiz-adv-x="1889" d="M1283 1621T1523 1381T1763 802Q1763 463 1523 223T944 -17Q605 -17 365 223T125 802Q125 1141 365 1381T944 1621Q1283 1621 1523 1381ZM944 1412Q691 1412 513 1234T334 802Q334 549 513 370T944 191Q1197
191 1375 370T1554 802Q1554 1055 1376 1233T944 1412Z" />
<glyph unicode="P" glyph-name="P" horiz-adv-x="1145" d="M357 512V0H150V1600H604Q797 1574 930 1441Q1089 1281 1089 1057Q1089 831 930 672T546 512H357ZM357 1392V720H546Q684 720 782 818T881 1057Q881 1196 783 1294T546 1392H357Z" />
<glyph unicode="Q" glyph-name="Q" horiz-adv-x="1889" d="M944 1412Q691 1412 513 1234T334 802Q334 549 513 370T944 191Q1197 191 1375 370T1554 802Q1554 1055 1376 1233T944 1412ZM1286 55Q1309 41 1334 23Q1404 -14 1429 -22Q1440 -25 1450 -25Q1467 -25
1484 -15Q1510 0 1518 29Q1521 38 1525 103H1734Q1727 5 1718 -27Q1686 -138 1585 -194Q1521 -231 1451 -231Q1412 -231 1373 -220Q1309 -203 1202 -134Q1116 -89 1083 -79Q1064 -74 1047 -74Q1017 -74 989 -90Q943 -116 929 -168Q927 -173 922 -234H713Q721 -139
729 -110Q746 -49 781 -2Q545 43 365 223Q125 463 125 802Q125 1141 365 1381T944 1621Q1283 1621 1523 1381T1763 802Q1763 463 1523 223Q1415 115 1286 55Z" />
<glyph unicode="R" glyph-name="R" horiz-adv-x="1171" d="M357 1392V720H546Q684 720 782 818T881 1057Q881 1196 783 1294T546 1392H357ZM546 512H357V0H150V1600H604Q797 1574 930 1441Q1089 1281 1089 1057Q1089 831 930 671Q820 561 762 547L1117 0H866L546 512Z" />
<glyph unicode="S" glyph-name="S" horiz-adv-x="1101" d="M557 821Q387 878 282 983T176 1245Q176 1398 285 1508T551 1618Q705 1618 815 1509Q877 1449 919 1318L731 1244Q697 1336 669 1364Q620 1412 551 1412Q481 1412 432 1364T383 1245Q383 1175 432 1126Q487
1072 584 1027Q772 966 903 835Q1050 690 1050 483Q1050 276 904 130T551 -17Q344 -17 198 130Q81 247 50 453L251 526Q270 349 344 275Q430 189 551 189Q672 189 758 275T844 483Q844 604 758 690Q676 772 557 821Z" />
<glyph unicode="T" glyph-name="T" horiz-adv-x="1054" d="M631 1393V0H423V1393H50V1600H1004V1393H631Z" />
<glyph unicode="U" glyph-name="U" horiz-adv-x="1388" d="M1030 1600H1238V473Q1211 280 1079 147Q919 -13 694 -13Q469 -13 310 146T150 531V1600H358V531Q358 393 456 295T694 196Q834 196 932 294T1030 531V1600Z" />
<glyph unicode="V" glyph-name="V" horiz-adv-x="1376" d="M631 0L50 1600H270L687 453L1105 1600H1326L743 0H631Z" />
<glyph unicode="W" glyph-name="W" horiz-adv-x="1686" d="M739 299V1600H946V299Q956 282 980 257Q1045 195 1134 195Q1223 195 1288 258T1353 411V1600H1561V403Q1557 234 1436 113Q1311 -13 1134 -13Q958 -13 843 111Q727 -13 551 -13Q374 -13 250 113Q128
233 125 403V1600H332V411Q332 322 397 259T551 195Q641 195 705 257Q730 282 739 299Z" />
<glyph unicode="X" glyph-name="X" horiz-adv-x="1347" d="M50 0L553 873L134 1600H372L672 1079L974 1600H1212L791 873L1296 0H1058L672 667L288 0H50Z" />
<glyph unicode="Y" glyph-name="Y" horiz-adv-x="1414" d="M603 642L50 1600H288L706 876L1125 1600H1364L810 642V0H603V642Z" />
<glyph unicode="Z" glyph-name="Z" horiz-adv-x="1463" d="M954 1393H196V1600H1312L507 208H1267V0H150L954 1393Z" />
<glyph unicode="[" glyph-name="bracketleft" horiz-adv-x="659" d="M332 -138H534V-345H125V1596H534V1389H332V-138Z" />
<glyph unicode="\" glyph-name="backslash" horiz-adv-x="853" d="M903 0H673L-50 1596H181L903 0Z" />
<glyph unicode="]" glyph-name="bracketright" horiz-adv-x="659" d="M327 1389H125V1596H534V-345H125V-138H327V1389Z" />
<glyph unicode="^" glyph-name="asciicircum" horiz-adv-x="1078" d="M623 1596L978 981H739L540 1326L340 981H100L456 1596H623Z" />
<glyph unicode="_" glyph-name="underscore" horiz-adv-x="1094" d="M25 96H1069V-110H25V96Z" />
<glyph unicode="`" glyph-name="grave" horiz-adv-x="669" d="M569 1128H372L100 1407H352L569 1128Z" />
<glyph unicode="a" glyph-name="a" horiz-adv-x="1401" d="M1042 466V618Q1024 715 946 794Q841 898 694 898Q546 898 442 794T337 542Q337 395 441 291T694 186Q841 186 946 290Q1024 369 1042 466ZM1042 957V1029H1250V-1H1042V128Q892 -27 694 -27Q458 -27
292 139T125 542Q125 778 291 944T694 1111Q892 1111 1042 957Z" />
<glyph unicode="b" glyph-name="b" horiz-adv-x="1400" d="M357 623V462Q376 368 453 291Q558 187 706 187Q854 187 958 291T1063 543Q1063 690 959 795T706 900Q558 900 453 795Q376 718 357 623ZM357 128V0H150V1600H357V958Q507 1113 706 1113Q942 1113 1108
946T1275 543Q1275 307 1109 140T706 -27Q507 -27 357 128Z" />
<glyph unicode="c" glyph-name="c" horiz-adv-x="1262" d="M965 353L1172 279Q1096 174 1062 140Q895 -27 659 -27Q424 -27 257 140T90 543Q90 779 257 946T659 1113Q895 1113 1062 946Q1096 912 1172 809L965 733Q925 782 911 796Q807 900 659 900Q512 900 408
796T303 543Q303 396 407 292T659 187Q807 187 912 291Q925 305 965 353Z" />
<glyph unicode="d" glyph-name="d" horiz-adv-x="1401" d="M1043 466V619Q1025 716 946 795Q842 900 694 900Q546 900 442 795T337 543Q337 395 441 291T694 187Q842 187 946 291Q1025 370 1043 466ZM1043 958V1600H1251V0H1043V128Q893 -27 694 -27Q458 -27 292
140T125 543Q125 779 291 946T694 1113Q893 1113 1043 958Z" />
<glyph unicode="e" glyph-name="e" horiz-adv-x="1262" d="M470 233Q522 187 659 187Q807 187 912 291Q925 305 965 353L1172 279Q1096 174 1062 140Q895 -27 659 -27Q424 -27 257 140T90 543Q90 779 257 946T659 1113Q861 1113 1013 991Q1038 970 1062 946Q1072
936 1119 883L1015 778L470 233ZM816 873Q781 900 659 900Q512 900 408 796T303 543Q303 422 330 386L816 873Z" />
<glyph unicode="f" glyph-name="f" horiz-adv-x="626" d="M390 823V-1H182V823H90V1030H182V1215Q189 1343 280 1435Q374 1523 498 1523Q560 1523 686 1480L617 1284Q529 1321 506 1321Q464 1321 425 1286Q392 1253 390 1207V1030H575V823H390Z" />
<glyph unicode="g" glyph-name="g" horiz-adv-x="1405" d="M1042 623Q1023 718 946 795Q842 900 694 900Q546 900 442 795T337 543Q337 395 441 291T694 186Q842 186 946 290Q1023 367 1042 460V623ZM1043 958V1029H1251V264Q1251 -36 1088 -199Q921 -346 685
-346Q449 -346 282 -199Q248 -165 173 -61L379 13Q419 -35 433 -49Q538 -153 685 -153Q932 -153 1027 171Q930 -17 694 -17Q458 -17 292 145T125 543Q125 779 291 945T694 1112Q893 1112 1043 958Z" />
<glyph unicode="h" glyph-name="h" horiz-adv-x="1125" d="M150 1600H358V918Q445 1085 610 1085Q775 1085 873 967T975 669V0H768V661Q768 750 718 813T558 877Q429 877 358 739V0H150V1600Z" />
<glyph unicode="i" glyph-name="i" horiz-adv-x="541" d="M374 1029V0H167V1029H374ZM330 1452T373 1410T416 1307Q416 1246 373 1204T270 1162Q211 1162 168 1204T125 1307Q125 1368 168 1410T270 1452Q330 1452 373 1410Z" />
<glyph unicode="j" glyph-name="j" horiz-adv-x="561" d="M49 -10Q161 2 161 60V1029H368V62Q368 -191 49 -216V-10ZM324 1452T367 1410T410 1307Q410 1246 367 1204T264 1162Q205 1162 162 1204T119 1307Q119 1368 162 1410T264 1452Q324 1452 367 1410Z" />
<glyph unicode="k" glyph-name="k" horiz-adv-x="944" d="M785 1029L506 685L894 0H647L367 513L358 502V0H150V1415H358V833L518 1029H785Z" />
<glyph unicode="l" glyph-name="l" horiz-adv-x="508" d="M358 1601V0H150V1601H358Z" />
<glyph unicode="m" glyph-name="m" horiz-adv-x="1418" d="M150 1029H357V933Q417 1084 588 1084Q758 1084 779 912Q828 1084 1049 1084Q1267 1084 1267 819V0H1059V724Q1059 876 936 876Q885 876 848 840T811 598V0H604L605 724Q605 876 481 876Q430 876 393
840Q361 809 357 676V0H150V1029Z" />
<glyph unicode="n" glyph-name="n" horiz-adv-x="1139" d="M358 753V0H150V1029H358V909Q423 1085 619 1085Q786 1085 884 967T986 669V0H779V661Q779 750 714 813T559 877Q470 877 405 815Q369 778 358 753Z" />
<glyph unicode="o" glyph-name="o" horiz-adv-x="1318" d="M659 1113Q895 1113 1061 946T1228 543Q1228 307 1062 140T659 -27Q424 -27 257 140T90 543Q90 779 257 946T659 1113ZM511 900T407 795T302 543Q302 395 406 291T659 187Q807 187 911 291T1016 543Q1016
690 912 795T659 900Q511 900 407 795Z" />
<glyph unicode="p" glyph-name="p" horiz-adv-x="1375" d="M357 623V462Q376 367 454 290Q558 186 706 186Q854 186 958 290T1063 543Q1063 690 959 795T706 900Q558 900 454 795Q376 718 357 623ZM357 128V-346H150V1029H357V936Q507 1112 706 1112Q942 1112
1108 946T1275 543Q1275 307 1109 140T706 -27Q507 -27 357 128Z" />
<glyph unicode="q" glyph-name="q" horiz-adv-x="1376" d="M1018 466V619Q1000 716 921 795Q817 900 669 900Q521 900 417 795T312 543Q312 395 416 291T669 186Q817 186 921 290Q1000 369 1018 466ZM1018 958V1029H1226V-346H1018V128Q868 -27 669 -27Q433 -27
267 140T100 543Q100 779 266 945T669 1112Q868 1112 1018 958Z" />
<glyph unicode="r" glyph-name="r" horiz-adv-x="693" d="M357 890Q473 1047 642 1055V840Q529 834 462 767Q361 667 357 529V0H150V1029H357V890Z" />
<glyph unicode="s" glyph-name="s" horiz-adv-x="882" d="M339 240T358 221Q395 185 446 185Q497 185 533 221T570 310Q570 361 534 397Q509 422 427 474Q315 535 268 582Q186 664 186 779Q186 895 268 977T466 1060Q582 1060 659 982Q714 927 729 859L528 801Q521
826 514 834Q496 852 466 852Q436 852 415 831T393 779Q393 749 414 728Q433 710 500 667Q624 599 680 543Q777 445 777 310Q777 172 681 75T446 -23Q309 -23 212 75Q145 142 124 242L330 286Q339 240 358 221Z" />
<glyph unicode="t" glyph-name="t" horiz-adv-x="758" d="M275 1029V1415H482V1029H667V822H482V0H275V822H90V1029H275Z" />
<glyph unicode="u" glyph-name="u" horiz-adv-x="1162" d="M586 -14Q391 -14 272 105T150 403V1029H358V411Q358 322 423 258Q488 194 585 194Q674 194 739 257T805 411V1029H1012V403Q1009 224 891 105Q772 -14 586 -14Z" />
<glyph unicode="v" glyph-name="v" horiz-adv-x="1188" d="M541 0L50 1029H284L593 361L903 1029H1137L645 0H541Z" />
<glyph unicode="w" glyph-name="w" horiz-adv-x="1418" d="M604 305V1029H811V322Q811 267 848 231T936 194Q1059 194 1059 347V1029H1267V308Q1262 176 1170 84Q1073 -14 936 -14Q798 -14 709 82Q618 -14 481 -14Q343 -14 246 84Q154 176 150 308V1029H357V347Q357
194 481 194Q532 194 569 230Q600 261 604 305Z" />
<glyph unicode="x" glyph-name="x" horiz-adv-x="1031" d="M906 1029L634 559L956 0H717L516 346L316 0H75L398 559L127 1029H366L516 772L665 1029H906Z" />
<glyph unicode="y" glyph-name="y" horiz-adv-x="1139" d="M403 -346H184L458 229L75 1029H308L569 466L830 1029H1062L403 -346Z" />
<glyph unicode="z" glyph-name="z" horiz-adv-x="1125" d="M618 822H195V1029H975L506 208H965V0H150L618 822Z" />
<glyph unicode="{" glyph-name="braceleft" horiz-adv-x="941" d="M125 749H288Q371 802 398 896Q413 954 413 1020Q413 1056 408 1093Q395 1163 395 1227Q395 1297 411 1359Q446 1487 563 1553Q637 1596 719 1596Q741 1596 816 1584V1389Q732 1403 721 1403Q689
1403 658 1386Q612 1360 598 1308Q587 1265 587 1209Q587 1184 589 1160Q604 1087 604 1013Q604 927 583 845Q535 675 466 623Q535 576 583 406Q604 324 604 238Q604 164 589 91Q587 67 587 42Q587 -14 598 -57Q612 -108 658 -134Q691 -152 723 -152Q734 -152 816
-142V-333Q741 -345 719 -345Q637 -345 563 -302Q446 -236 411 -107Q395 -45 395 25Q395 89 408 158Q413 195 413 231Q413 297 398 355Q371 449 288 502H125V749Z" />
<glyph unicode="|" glyph-name="bar" horiz-adv-x="507" d="M357 1596V-345H150V1596H357Z" />
<glyph unicode="}" glyph-name="braceright" horiz-adv-x="941" d="M816 502H653Q569 449 543 355Q528 297 528 231Q528 195 532 158Q546 89 546 25Q546 -45 529 -107Q495 -236 378 -302Q304 -345 222 -345Q200 -345 125 -333V-142Q206 -152 217 -152Q250 -152
283 -134Q329 -108 342 -57Q354 -14 354 42Q354 67 352 91Q337 164 337 238Q337 324 358 406Q405 576 475 623Q405 675 358 845Q337 927 337 1013Q337 1087 352 1160Q354 1184 354 1209Q354 1265 342 1308Q329 1360 283 1386Q252 1403 220 1403Q209 1403 125 1389V1584Q200
1596 222 1596Q304 1596 378 1553Q495 1487 529 1359Q546 1297 546 1227Q546 1163 533 1093Q528 1056 528 1020Q528 954 543 896Q569 802 653 749H816V502Z" />
<glyph unicode="~" glyph-name="asciitilde" horiz-adv-x="1326" d="M692 908Q851 816 912 816H921Q962 829 979 872Q988 895 988 992L1201 959Q1191 848 1170 794Q1117 665 989 622Q956 612 918 612Q805 612 631 711Q471 803 410 803H403Q362 790 344 748Q335
722 332 627L125 660Q130 770 152 825Q205 954 335 997Q367 1007 405 1007Q519 1007 692 908Z" />
<glyph unicode="&#xa0;" glyph-name="space" horiz-adv-x="708" />
<glyph unicode="&#xa1;" glyph-name="exclamdown" horiz-adv-x="541" d="M210 739T168 781T125 883Q125 945 167 987T270 1029Q329 1029 372 987T415 883Q415 823 372 781T270 739Q210 739 168 781ZM168 -584V561H375V-584H168Z" />
<glyph unicode="&#xa2;" glyph-name="cent" horiz-adv-x="1110" d="M639 773Q682 774 759 851Q769 861 809 909L1008 836Q932 734 905 706Q768 569 639 567V425H432V583Q343 599 238 705Q99 843 99 1039Q99 1234 238 1373Q343 1478 432 1495V1653H639V1511Q768
1509 905 1372Q932 1344 1009 1244L810 1169Q769 1218 759 1229Q683 1304 639 1305V773ZM433 1278Q305 1190 305 1039Q305 899 432 797L433 1278Z" />
<glyph unicode="&#xa3;" glyph-name="sterling" horiz-adv-x="1214" d="M575 509Q575 282 453 157Q534 209 631 209Q657 209 685 205Q813 187 887 187Q953 187 1075 218L1114 14Q975 -20 887 -20Q798 -20 706 1Q622 19 560 19Q508 19 473 7Q381 -26 251 -92L100
87Q256 225 282 257Q367 358 369 511H150V717H323Q322 720 282 799Q173 975 159 1139Q157 1159 157 1180Q157 1330 256 1449Q367 1581 544 1598Q564 1599 583 1599Q733 1599 853 1500Q986 1386 1002 1213Q1006 1189 1006 1166Q1006 1095 958 984L765 1049Q796 1138
796 1175Q796 1186 795 1196Q787 1283 719 1340Q659 1390 584 1390Q573 1390 563 1389Q475 1382 418 1314Q368 1254 368 1180Q368 1168 369 1157Q377 1065 433 946Q516 814 540 717H734V511L575 509Z" />
<glyph unicode="&#xa4;" glyph-name="currency" horiz-adv-x="1214" d="M378 1491Q452 1551 607 1551Q763 1551 836 1491L968 1623L1114 1476L982 1344Q1043 1271 1043 1115Q1043 960 982 887L1114 755L968 608L836 740Q763 680 607 680Q452 680 378 740L247 608L100
755L232 887Q172 960 172 1115Q172 1271 232 1344L100 1476L247 1623L378 1491ZM744 1299Q685 1344 607 1344Q529 1344 471 1299Q457 1289 446 1278Q434 1266 424 1252Q378 1193 378 1115Q378 1037 424 979Q433 966 446 954Q458 941 471 932Q529 887 607 887Q685
887 744 932Q757 942 769 954Q781 965 790 979Q836 1037 836 1115Q836 1193 790 1252Q780 1266 769 1278Q758 1288 744 1299Z" />
<glyph unicode="&#xa5;" glyph-name="yen" horiz-adv-x="1414" d="M535 760L50 1600H288L706 876L1125 1600H1364L878 760H1138V552H810V464H1138V257H810V0H603V257H276V464H603V552H276V760H535Z" />
<glyph unicode="&#xa6;" glyph-name="brokenbar" horiz-adv-x="507" d="M357 1596V691H150V1596H357ZM357 560V-345H150V560H357Z" />
<glyph unicode="&#xa7;" glyph-name="section" d="M894 497H895Q900 497 900 611Q900 732 815 818Q732 900 613 949Q444 1005 343 1107L312 1120H311Q305 1120 305 1005Q305 884 391 799Q473 716 592 668Q761 611 863 510L894 497ZM233 1371Q233 1524 342 1633T607
1743Q762 1743 871 1634Q933 1575 975 1444L787 1370Q753 1462 726 1490Q677 1538 607 1538Q538 1538 489 1490T440 1371Q440 1302 489 1253Q544 1199 641 1154Q828 1093 959 962Q1105 817 1105 611Q1105 404 972 245Q972 93 863 -17T598 -127Q444 -127 334 -18Q272
41 231 172L418 246Q452 154 480 126Q529 78 598 78Q667 78 716 126T765 245Q765 314 716 363Q662 417 564 462Q377 523 246 654Q100 799 100 1005Q100 1212 233 1371Z" />
<glyph unicode="&#xa8;" glyph-name="dieresis" horiz-adv-x="716" d="M229 1438T272 1396T315 1294Q315 1233 272 1191T170 1149Q110 1149 68 1191T25 1294Q25 1354 67 1396T170 1438Q229 1438 272 1396ZM605 1438T648 1396T691 1294Q691 1233 648 1191T546 1149Q486
1149 444 1191T401 1294Q401 1354 443 1396T546 1438Q605 1438 648 1396Z" />
<glyph unicode="&#xa9;" glyph-name="copyright" horiz-adv-x="1433" d="M893 542L1074 476Q1005 380 983 358Q876 250 724 250Q572 250 465 357T358 617Q358 768 465 875T724 983Q876 983 983 876Q1005 854 1074 758L893 691Q856 738 849 745Q798 796 724 796Q650
796 598 744T545 617Q545 543 597 491T724 438Q798 438 850 490Q857 497 893 542ZM968 1232T1148 1052T1328 617Q1328 362 1148 182T714 2Q459 2 279 182T99 617Q99 872 279 1052T714 1232Q968 1232 1148 1052ZM714 1042Q537 1042 413 918T288 617Q288 441 412
316T714 191Q890 191 1014 316T1139 617Q1139 793 1015 917T714 1042Z" />
<glyph unicode="&#xaa;" glyph-name="ordfeminine" horiz-adv-x="1019" d="M730 1213V1304Q718 1362 667 1410Q598 1472 501 1472Q403 1472 334 1410T265 1259Q265 1170 334 1108T501 1045Q598 1045 667 1107Q718 1155 730 1213ZM730 1508V1551H868V933H730V1010Q631
917 501 917Q345 917 235 1017T125 1259Q125 1400 235 1500T501 1600Q631 1600 730 1508ZM956 1347H1113V640H334V797H956V1347Z" />
<glyph unicode="&#xab;" glyph-name="guillemotleft" horiz-adv-x="1222" d="M100 489L643 1070V792L360 489L643 185V-95L100 489ZM578 489L1121 1070V792L838 489L1121 185V-95L578 489Z" />
<glyph unicode="&#xad;" glyph-name="hyphen" horiz-adv-x="919" d="M125 712H793V505H125V712Z" />
<glyph unicode="&#xae;" glyph-name="registered" horiz-adv-x="1208" d="M809 831Q813 837 836 859Q932 956 932 1091Q932 1228 836 1324Q829 1331 822 1338Q893 1258 893 1149Q893 1029 809 945Q765 901 765 893Q765 892 768 892H770L809 831ZM562 1261V1038H606Q652
1038 685 1070T718 1149Q718 1196 685 1228T606 1261H562ZM562 765Q583 763 605 763Q634 763 645 762L581 861H562V765ZM387 1338Q379 1331 372 1324Q276 1228 276 1091Q276 956 372 859Q379 852 387 845V1338ZM605 587Q395 587 248 735T100 1091Q100 1300 247
1448T605 1596Q812 1596 960 1448T1108 1091Q1108 883 960 735Q908 683 816 635T605 587Z" />
<glyph unicode="&#xaf;" glyph-name="overscore" horiz-adv-x="717" d="M75 1437H642V1230H75V1437Z" />
<glyph unicode="0;" glyph-name="degree" horiz-adv-x="849" d="M539 1596T619 1516T699 1321Q699 1207 619 1127T425 1047Q311 1047 231 1127T150 1321Q150 1435 230 1515T425 1596Q539 1596 619 1516ZM425 1407Q389 1407 364 1382T339 1321Q339 1286 364
1261T425 1236Q460 1236 485 1261T510 1321Q510 1357 485 1382T425 1407Z" />
<glyph unicode="1;" glyph-name="plusminus" horiz-adv-x="1110" d="M452 207V503H125V710H452V1037H658V710H985V503H658V207H985V0H125V207H452Z" />
<glyph unicode="2;" glyph-name="uni00B2" horiz-adv-x="979" d="M125 800T259 907T467 1065T592 1169T645 1281Q645 1339 601 1380T493 1421Q430 1421 385 1380Q347 1345 331 1207L126 1276Q153 1439 237 1517Q343 1616 493 1616Q643 1616 749 1518T855 1281Q855
1144 752 1043Q692 982 533 908T370 771H855V578H125Q125 800 259 907Z" />
<glyph unicode="3;" glyph-name="uni00B3" horiz-adv-x="979" d="M452 1122L339 1124V1214L457 1215Q499 1230 524 1254T549 1357Q549 1385 529 1403T478 1422Q399 1422 383 1310L193 1380Q233 1499 280 1541Q363 1616 478 1616Q596 1616 678 1540T760 1357Q760
1221 624 1191Q721 1170 787 1104T854 901Q854 763 748 665T492 566Q343 566 236 665Q152 743 125 907L331 976Q347 837 385 802Q430 761 492 761Q556 761 600 802T644 901Q644 961 598 1032T452 1122Z" />
<glyph unicode="4;" glyph-name="acute" horiz-adv-x="669" d="M317 1407H569L297 1128H100L317 1407Z" />
<glyph unicode="5;" glyph-name="mu" horiz-adv-x="1110" d="M755 81Q665 -6 547 -6Q375 -6 357 61V-343H150V1029H357V309Q365 291 393 263Q458 201 547 201Q636 201 701 265Q743 306 755 349V1029H960V2H755V81Z" />
<glyph unicode="6;" glyph-name="paragraph" horiz-adv-x="1222" d="M878 1474V-325H671V594H593Q369 594 210 753T51 1137Q51 1362 210 1521Q342 1653 536 1680H551V1681H1197V1474H1156V-325H949V1474H878Z" />
<glyph unicode="7;" glyph-name="middot" horiz-adv-x="708" d="M274 923T310 888T346 801Q346 748 310 713T223 677Q173 677 137 712T100 801Q100 852 136 887T223 923Q274 923 310 888Z" />
<glyph unicode="8;" glyph-name="cedilla" horiz-adv-x="418" d="M311 17L288 -44Q362 -82 383 -133Q387 -147 390 -160Q393 -173 393 -186Q393 -229 362 -267Q313 -326 218 -340Q199 -343 174 -343Q116 -343 25 -328L60 -202Q117 -228 153 -228Q159 -228
164 -227Q195 -223 204 -192Q207 -185 207 -177Q207 -173 206 -169Q200 -141 114 -113L162 17H311Z" />
<glyph unicode="9;" glyph-name="uni00B9" horiz-adv-x="1081" d="M713 1596V570H505V1366H368L562 1596H713Z" />
<glyph unicode="a;" glyph-name="ordmasculine" horiz-adv-x="931" d="M466 1600Q621 1600 731 1500T841 1258Q841 1116 731 1016T466 916Q310 916 200 1016T90 1258Q90 1400 200 1500T466 1600ZM368 1472T299 1409T230 1258Q230 1169 299 1107T466 1044Q563
1044 632 1106T701 1258Q701 1346 632 1409T466 1472Q368 1472 299 1409ZM956 1347H1113V640H334V797H956V1347Z" />
<glyph unicode="b;" glyph-name="guillemotright" horiz-adv-x="1222" d="M100 -95V185L383 489L100 792V1070L643 489L100 -95ZM578 -95V185L861 489L578 792V1070L1121 489L578 -95Z" />
<glyph unicode="f;" glyph-name="questiondown" horiz-adv-x="1028" d="M876 -170Q876 -244 840 -316Q772 -456 626 -507Q562 -529 500 -529Q418 -529 339 -491Q199 -424 148 -279Q127 -216 127 -154Q127 -71 165 8Q228 138 369 247Q465 332 515 437Q545 499
546 560H752Q751 452 700 348Q620 181 462 62Q386 -13 352 -82Q335 -119 335 -155Q335 -182 344 -210Q368 -276 430 -306Q466 -323 502 -323Q529 -323 558 -313Q624 -290 654 -228Q663 -209 667 -171L876 -103V-170ZM485 883Q485 945 528 987T630 1029Q690 1029
732 987T775 883Q775 823 733 781T630 739Q571 739 528 781T485 883Z" />
<glyph unicode="0;" glyph-name="Agrave" horiz-adv-x="1376" d="M825 773L688 1148L552 773H825ZM744 1600L1326 0H1106L900 566H476L271 0H50L632 1600H744ZM844 1699H647L375 1978H627L844 1699Z" />
<glyph unicode="1;" glyph-name="Aacute" horiz-adv-x="1376" d="M825 773L688 1148L552 773H825ZM744 1600L1326 0H1106L900 566H476L271 0H50L632 1600H744ZM749 1978H1001L729 1699H532L749 1978Z" />
<glyph unicode="2;" glyph-name="Acircumflex" horiz-adv-x="1376" d="M825 773L688 1148L552 773H825ZM744 1600L1326 0H1106L900 566H476L271 0H50L632 1600H744ZM778 1749L686 1831L597 1749H378L611 1987H758L999 1749H778Z" />
<glyph unicode="3;" glyph-name="Atilde" horiz-adv-x="1376" d="M825 773L688 1148L552 773H825ZM744 1600L1326 0H1106L900 566H476L271 0H50L632 1600H744ZM775 1888T801 1888V1887Q831 1887 831 1926Q831 1952 818 1995H1004Q966 1775 857 1743Q829 1735
801 1735Q727 1735 668 1792T580 1849H576Q546 1847 546 1810Q546 1785 560 1744H373Q412 1964 522 1996Q550 2004 578 2004Q651 2004 713 1946Z" />
<glyph unicode="4;" glyph-name="Adieresis" horiz-adv-x="1376" d="M825 773L688 1148L552 773H825ZM744 1600L1326 0H1106L900 566H476L271 0H50L632 1600H744ZM559 2009T602 1967T645 1865Q645 1804 602 1762T500 1720Q440 1720 398 1762T355 1865Q355
1925 397 1967T500 2009Q559 2009 602 1967ZM935 2009T978 1967T1021 1865Q1021 1804 978 1762T876 1720Q816 1720 774 1762T731 1865Q731 1925 773 1967T876 2009Q935 2009 978 1967Z" />
<glyph unicode="5;" glyph-name="Aring" horiz-adv-x="1376" d="M825 773L688 1148L552 773H825ZM691 1738Q713 1738 729 1753T745 1792Q745 1820 729 1835T691 1851Q663 1851 648 1836T632 1792Q632 1769 647 1754T691 1738ZM747 1592L1326 0H1106L900 566H476L271
0H50L629 1592Q579 1606 540 1646Q478 1708 478 1794Q478 1881 539 1943T689 2005Q776 2005 837 1943T899 1794Q899 1708 838 1646Q798 1606 747 1592Z" />
<glyph unicode="6;" glyph-name="AE" horiz-adv-x="1715" d="M1591 1600V1393H936V904H1591V697H936V208H1591V0H729V566H535L293 0H40L729 1548V1600H1591ZM729 1028L619 773H729V1028Z" />
<glyph unicode="7;" glyph-name="Ccedilla" horiz-adv-x="1642" d="M780 -2Q544 42 364 222Q125 461 125 800Q125 1138 364 1378T942 1618Q1259 1618 1543 1359L1388 1218Q1174 1408 942 1408Q691 1408 513 1230T334 800Q334 547 512 369T942 191Q1174 191
1388 381L1543 242Q1259 -17 942 -17H923L913 -44Q987 -82 1008 -133Q1012 -147 1015 -160Q1018 -173 1018 -186Q1018 -229 987 -267Q938 -326 843 -340Q824 -343 799 -343Q741 -343 650 -328L685 -202Q742 -228 778 -228Q784 -228 789 -227Q820 -223 829 -192Q832
-185 832 -177Q832 -173 831 -169Q825 -141 739 -113L780 -2Z" />
<glyph unicode="8;" glyph-name="Egrave" horiz-adv-x="1137" d="M1012 1600V1393H357V904H1012V697H357V208H1012V0H150V1600H1012ZM737 1699H540L268 1978H520L737 1699Z" />
<glyph unicode="9;" glyph-name="Eacute" horiz-adv-x="1137" d="M1012 1600V1393H357V904H1012V697H357V208H1012V0H150V1600H1012ZM642 1978H894L622 1699H425L642 1978Z" />
<glyph unicode="a;" glyph-name="Ecircumflex" horiz-adv-x="1137" d="M1012 1600V1393H357V904H1012V697H357V208H1012V0H150V1600H1012ZM671 1749L579 1831L490 1749H271L504 1987H651L892 1749H671Z" />
<glyph unicode="b;" glyph-name="Edieresis" horiz-adv-x="1137" d="M1012 1600V1393H357V904H1012V697H357V208H1012V0H150V1600H1012ZM452 2009T495 1967T538 1865Q538 1804 495 1762T393 1720Q333 1720 291 1762T248 1865Q248 1925 290 1967T393 2009Q452
2009 495 1967ZM828 2009T871 1967T914 1865Q914 1804 871 1762T769 1720Q709 1720 667 1762T624 1865Q624 1925 666 1967T769 2009Q828 2009 871 1967Z" />
<glyph unicode="c;" glyph-name="Igrave" horiz-adv-x="548" d="M377 1600V0H170V1600H377ZM430 1699H233L-39 1978H213L430 1699Z" />
<glyph unicode="d;" glyph-name="Iacute" horiz-adv-x="548" d="M377 1600V0H170V1600H377ZM334 1978H586L314 1699H117L334 1978Z" />
<glyph unicode="e;" glyph-name="Icircumflex" horiz-adv-x="548" d="M377 1600V0H170V1600H377ZM363 1749L271 1831L182 1749H-37L196 1987H343L584 1749H363Z" />
<glyph unicode="f;" glyph-name="Idieresis" horiz-adv-x="548" d="M378 1600V0H171V1600H378ZM145 2009T188 1967T231 1865Q231 1804 188 1762T86 1720Q26 1720 -16 1762T-59 1865Q-59 1925 -17 1967T86 2009Q145 2009 188 1967ZM521 2009T564 1967T607 1865Q607
1804 564 1762T462 1720Q402 1720 360 1762T317 1865Q317 1925 359 1967T462 2009Q521 2009 564 1967Z" />
<glyph unicode="&#xd0;" glyph-name="Eth" horiz-adv-x="1250" d="M150 903V1600H302Q692 1598 910 1379Q1149 1138 1149 800Q1149 461 910 221Q692 2 302 0H150V697H-40V903H150ZM357 903H704V697H357V210Q604 210 762 369Q940 547 940 800Q940 1052 762 1231Q604
1389 357 1389V903Z" />
<glyph unicode="&#xd1;" glyph-name="Ntilde" horiz-adv-x="1357" d="M150 1600H339L999 458V1600H1207V0H1026L357 1156V0H150V1600ZM765 1888T791 1888V1887Q821 1887 821 1926Q821 1952 808 1995H994Q956 1775 847 1743Q819 1735 791 1735Q717 1735 658 1792T570
1849H566Q536 1847 536 1810Q536 1785 550 1744H363Q402 1964 512 1996Q540 2004 568 2004Q641 2004 703 1946Z" />
<glyph unicode="&#xd2;" glyph-name="Ograve" horiz-adv-x="1889" d="M1283 1621T1523 1381T1763 802Q1763 463 1523 223T944 -17Q605 -17 365 223T125 802Q125 1141 365 1381T944 1621Q1283 1621 1523 1381ZM944 1412Q691 1412 513 1234T334 802Q334 549 513
370T944 191Q1197 191 1375 370T1554 802Q1554 1055 1376 1233T944 1412ZM1100 1699H903L631 1978H883L1100 1699Z" />
<glyph unicode="&#xd3;" glyph-name="Oacute" horiz-adv-x="1889" d="M1283 1621T1523 1381T1763 802Q1763 463 1523 223T944 -17Q605 -17 365 223T125 802Q125 1141 365 1381T944 1621Q1283 1621 1523 1381ZM944 1412Q691 1412 513 1234T334 802Q334 549 513
370T944 191Q1197 191 1375 370T1554 802Q1554 1055 1376 1233T944 1412ZM1005 1978H1257L985 1699H788L1005 1978Z" />
<glyph unicode="&#xd4;" glyph-name="Ocircumflex" horiz-adv-x="1889" d="M1283 1621T1523 1381T1763 802Q1763 463 1523 223T944 -17Q605 -17 365 223T125 802Q125 1141 365 1381T944 1621Q1283 1621 1523 1381ZM944 1412Q691 1412 513 1234T334 802Q334 549
513 370T944 191Q1197 191 1375 370T1554 802Q1554 1055 1376 1233T944 1412ZM1034 1749L942 1831L853 1749H634L867 1987H1014L1255 1749H1034Z" />
<glyph unicode="&#xd5;" glyph-name="Otilde" horiz-adv-x="1889" d="M1283 1621T1523 1381T1763 802Q1763 463 1523 223T944 -17Q605 -17 365 223T125 802Q125 1141 365 1381T944 1621Q1283 1621 1523 1381ZM944 1412Q691 1412 513 1234T334 802Q334 549 513
370T944 191Q1197 191 1375 370T1554 802Q1554 1055 1376 1233T944 1412ZM1031 1888T1057 1888V1887Q1087 1887 1087 1926Q1087 1952 1074 1995H1260Q1222 1775 1113 1743Q1085 1735 1057 1735Q983 1735 924 1792T836 1849H832Q802 1847 802 1810Q802 1785 816
1744H629Q668 1964 778 1996Q806 2004 834 2004Q907 2004 969 1946Z" />
<glyph unicode="&#xd6;" glyph-name="Odieresis" horiz-adv-x="1889" d="M1283 1621T1523 1381T1763 802Q1763 463 1523 223T944 -17Q605 -17 365 223T125 802Q125 1141 365 1381T944 1621Q1283 1621 1523 1381ZM944 1412Q691 1412 513 1234T334 802Q334 549 513
370T944 191Q1197 191 1375 370T1554 802Q1554 1055 1376 1233T944 1412ZM815 2009T858 1967T901 1865Q901 1804 858 1762T756 1720Q696 1720 654 1762T611 1865Q611 1925 653 1967T756 2009Q815 2009 858 1967ZM1191 2009T1234 1967T1277 1865Q1277 1804 1234
1762T1132 1720Q1072 1720 1030 1762T987 1865Q987 1925 1029 1967T1132 2009Q1191 2009 1234 1967Z" />
<glyph unicode="&#xd7;" glyph-name="multiply" horiz-adv-x="1177" d="M588 461L357 230L210 377L441 608L210 840L357 987L588 755L820 987L965 839L734 608L965 377L820 230L588 461Z" />
<glyph unicode="&#xd8;" glyph-name="Oslash" horiz-adv-x="1889" d="M1106 1396Q1065 1412 944 1412Q691 1412 513 1234T334 802Q334 549 513 370Q578 305 594 296L1106 1396ZM781 208Q823 191 944 191Q1197 191 1375 370T1554 802Q1554 1055 1376 1234Q1311
1299 1294 1308L781 208ZM1383 1498Q1434 1470 1524 1382Q1763 1141 1763 802Q1763 463 1523 223T944 -17Q780 -17 693 18L613 -155L424 -67L505 106Q454 134 365 223Q125 463 125 802Q125 1141 365 1381T944 1621Q1108 1621 1195 1586L1276 1759L1464 1671L1383
1498Z" />
<glyph unicode="&#xd9;" glyph-name="Ugrave" horiz-adv-x="1388" d="M1030 1600H1238V473Q1211 280 1079 147Q919 -13 694 -13Q469 -13 310 146T150 531V1600H358V531Q358 393 456 295T694 196Q834 196 932 294T1030 531V1600ZM850 1699H653L381 1978H633L850 1699Z" />
<glyph unicode="&#xda;" glyph-name="Uacute" horiz-adv-x="1388" d="M1030 1600H1238V473Q1211 280 1079 147Q919 -13 694 -13Q469 -13 310 146T150 531V1600H358V531Q358 393 456 295T694 196Q834 196 932 294T1030 531V1600ZM755 1978H1007L735 1699H538L755 1978Z" />
<glyph unicode="&#xdb;" glyph-name="Ucircumflex" horiz-adv-x="1388" d="M1030 1600H1238V473Q1211 280 1079 147Q919 -13 694 -13Q469 -13 310 146T150 531V1600H358V531Q358 393 456 295T694 196Q834 196 932 294T1030 531V1600ZM784 1749L692 1831L603 1749H384L617
1987H764L1005 1749H784Z" />
<glyph unicode="&#xdc;" glyph-name="Udieresis" horiz-adv-x="1388" d="M1030 1600H1238V473Q1211 280 1079 147Q919 -13 694 -13Q469 -13 310 146T150 531V1600H358V531Q358 393 456 295T694 196Q834 196 932 294T1030 531V1600ZM565 2009T608 1967T651 1865Q651
1804 608 1762T506 1720Q446 1720 404 1762T361 1865Q361 1925 403 1967T506 2009Q565 2009 608 1967ZM941 2009T984 1967T1027 1865Q1027 1804 984 1762T882 1720Q822 1720 780 1762T737 1865Q737 1925 779 1967T882 2009Q941 2009 984 1967Z" />
<glyph unicode="&#xdd;" glyph-name="Yacute" horiz-adv-x="1414" d="M603 642L50 1600H288L706 876L1125 1600H1364L810 642V0H603V642ZM768 1978H1020L748 1699H551L768 1978Z" />
<glyph unicode="&#xde;" glyph-name="Thorn" horiz-adv-x="1180" d="M357 1345H604Q797 1318 930 1185Q1089 1026 1089 801Q1089 575 930 416T546 257H357V0H150V1600H357V1345ZM357 465H546Q684 465 782 563T881 801Q881 940 783 1038T546 1136H357V465Z" />
<glyph unicode="&#xdf;" glyph-name="germandbls" horiz-adv-x="1142" d="M469 1607H485Q619 1607 715 1529Q820 1442 829 1273V1256Q829 1092 783 1064Q1038 962 1052 572Q1052 336 887 165Q731 4 576 2V0H498V208H576V211Q640 215 735 314Q840 422 840 571Q840
718 736 822T490 927V1137Q555 1145 589 1176T623 1263Q623 1321 587 1362Q557 1396 494 1396H485Q416 1394 384 1356T347 1228V0H140V1246Q151 1419 236 1510T469 1607Z" />
<glyph unicode="&#xe0;" glyph-name="agrave" horiz-adv-x="1401" d="M1042 466V618Q1024 715 946 794Q841 898 694 898Q546 898 442 794T337 542Q337 395 441 291T694 186Q841 186 946 290Q1024 369 1042 466ZM1042 957V1029H1250V-1H1042V128Q892 -27 694 -27Q458
-27 292 139T125 542Q125 778 291 944T694 1111Q892 1111 1042 957ZM844 1128H647L375 1407H627L844 1128Z" />
<glyph unicode="&#xe1;" glyph-name="aacute" horiz-adv-x="1401" d="M1042 466V618Q1024 715 946 794Q841 898 694 898Q546 898 442 794T337 542Q337 395 441 291T694 186Q841 186 946 290Q1024 369 1042 466ZM1042 957V1029H1250V-1H1042V128Q892 -27 694 -27Q458
-27 292 139T125 542Q125 778 291 944T694 1111Q892 1111 1042 957ZM748 1407H1000L728 1128H531L748 1407Z" />
<glyph unicode="&#xe2;" glyph-name="acircumflex" horiz-adv-x="1401" d="M1042 466V618Q1024 715 946 794Q841 898 694 898Q546 898 442 794T337 542Q337 395 441 291T694 186Q841 186 946 290Q1024 369 1042 466ZM1042 957V1029H1250V-1H1042V128Q892 -27 694
-27Q458 -27 292 139T125 542Q125 778 291 944T694 1111Q892 1111 1042 957ZM777 1178L685 1260L596 1178H377L610 1416H757L998 1178H777Z" />
<glyph unicode="&#xe3;" glyph-name="atilde" horiz-adv-x="1401" d="M1042 466V618Q1024 715 946 794Q841 898 694 898Q546 898 442 794T337 542Q337 395 441 291T694 186Q841 186 946 290Q1024 369 1042 466ZM1042 957V1029H1250V-1H1042V128Q892 -27 694 -27Q458
-27 292 139T125 542Q125 778 291 944T694 1111Q892 1111 1042 957ZM774 1317T800 1317V1316Q830 1316 830 1355Q830 1381 817 1424H1003Q965 1204 856 1172Q828 1164 800 1164Q726 1164 667 1221T579 1278H575Q545 1276 545 1239Q545 1214 559 1173H372Q411 1393
521 1425Q549 1433 577 1433Q650 1433 712 1375Z" />
<glyph unicode="&#xe4;" glyph-name="adieresis" horiz-adv-x="1401" d="M1042 466V618Q1024 715 946 794Q841 898 694 898Q546 898 442 794T337 542Q337 395 441 291T694 186Q841 186 946 290Q1024 369 1042 466ZM1042 957V1029H1250V-1H1042V128Q892 -27 694
-27Q458 -27 292 139T125 542Q125 778 291 944T694 1111Q892 1111 1042 957ZM559 1438T602 1396T645 1294Q645 1233 602 1191T500 1149Q440 1149 398 1191T355 1294Q355 1354 397 1396T500 1438Q559 1438 602 1396ZM935 1438T978 1396T1021 1294Q1021 1233 978
1191T876 1149Q816 1149 774 1191T731 1294Q731 1354 773 1396T876 1438Q935 1438 978 1396Z" />
<glyph unicode="&#xe5;" glyph-name="aring" horiz-adv-x="1401" d="M1042 466V618Q1024 715 946 794Q841 898 694 898Q546 898 442 794T337 542Q337 395 441 291T694 186Q841 186 946 290Q1024 369 1042 466ZM690 1199Q712 1199 728 1214T744 1253Q744 1281 728
1296T690 1312Q662 1312 647 1297T631 1253Q631 1230 646 1215T690 1199ZM822 1094Q943 1059 1042 957V1029H1250V-1H1042V128Q892 -27 694 -27Q458 -27 292 139T125 542Q125 778 292 945Q405 1058 552 1094Q545 1100 539 1107Q477 1169 477 1255Q477 1342 538
1404T688 1466Q775 1466 836 1404T898 1255Q898 1169 837 1107Q829 1100 822 1094Z" />
<glyph unicode="&#xe6;" glyph-name="ae" horiz-adv-x="2142" d="M972 714Q948 757 910 795Q806 899 658 899Q511 899 407 795T302 543Q302 395 406 291T658 187Q806 187 910 292Q949 330 972 372Q999 419 1008 467V619Q999 667 972 714ZM1804 736L1745 795Q1641
899 1493 899Q1345 899 1241 795Q1219 773 1215 767V736H1804ZM1008 992V1030H1215Q1271 1112 1493 1112Q1729 1112 1896 945Q2044 796 2052 528L1215 529V319Q1219 313 1240 292Q1345 187 1493 187Q1641 187 1745 292Q1764 311 1808 365L2010 294Q1951 196 1896
141Q1729 -25 1493 -25Q1271 -25 1215 27V0H1008V95Q858 -25 658 -25Q423 -25 257 141T90 543Q90 779 256 945T658 1112Q858 1112 1008 992Z" />
<glyph unicode="&#xe7;" glyph-name="ccedilla" horiz-adv-x="1262" d="M570 -21Q391 6 257 140Q90 307 90 543Q90 779 257 946T659 1113Q895 1113 1062 946Q1096 912 1172 809L965 733Q925 782 911 796Q807 900 659 900Q512 900 408 796T303 543Q303 396 407
292T659 187Q807 187 912 291Q925 305 965 353L1172 279Q1096 174 1062 140Q916 -6 717 -24L710 -44Q784 -82 805 -133Q809 -147 812 -160Q815 -173 815 -186Q815 -229 784 -267Q735 -326 640 -340Q621 -343 596 -343Q538 -343 447 -328L482 -202Q539 -228 575
-228Q581 -228 586 -227Q617 -223 626 -192Q629 -185 629 -177Q629 -173 628 -169Q622 -141 536 -113L570 -21Z" />
<glyph unicode="&#xe8;" glyph-name="egrave" horiz-adv-x="1262" d="M470 233Q522 187 659 187Q807 187 912 291Q925 305 965 353L1172 279Q1096 174 1062 140Q895 -27 659 -27Q424 -27 257 140T90 543Q90 779 257 946T659 1113Q861 1113 1013 991Q1038 970 1062
946Q1072 936 1119 883L1015 778L470 233ZM816 873Q781 900 659 900Q512 900 408 796T303 543Q303 422 330 386L816 873ZM787 1128H590L318 1407H570L787 1128Z" />
<glyph unicode="&#xe9;" glyph-name="eacute" horiz-adv-x="1262" d="M470 233Q522 187 659 187Q807 187 912 291Q925 305 965 353L1172 279Q1096 174 1062 140Q895 -27 659 -27Q424 -27 257 140T90 543Q90 779 257 946T659 1113Q861 1113 1013 991Q1038 970 1062
946Q1072 936 1119 883L1015 778L470 233ZM816 873Q781 900 659 900Q512 900 408 796T303 543Q303 422 330 386L816 873ZM692 1407H944L672 1128H475L692 1407Z" />
<glyph unicode="&#xea;" glyph-name="ecircumflex" horiz-adv-x="1262" d="M470 233Q522 187 659 187Q807 187 912 291Q925 305 965 353L1172 279Q1096 174 1062 140Q895 -27 659 -27Q424 -27 257 140T90 543Q90 779 257 946T659 1113Q861 1113 1013 991Q1038
970 1062 946Q1072 936 1119 883L1015 778L470 233ZM816 873Q781 900 659 900Q512 900 408 796T303 543Q303 422 330 386L816 873ZM721 1178L629 1260L540 1178H321L554 1416H701L942 1178H721Z" />
<glyph unicode="&#xeb;" glyph-name="edieresis" horiz-adv-x="1262" d="M470 233Q522 187 659 187Q807 187 912 291Q925 305 965 353L1172 279Q1096 174 1062 140Q895 -27 659 -27Q424 -27 257 140T90 543Q90 779 257 946T659 1113Q861 1113 1013 991Q1038 970
1062 946Q1072 936 1119 883L1015 778L470 233ZM816 873Q781 900 659 900Q512 900 408 796T303 543Q303 422 330 386L816 873ZM502 1438T545 1396T588 1294Q588 1233 545 1191T443 1149Q383 1149 341 1191T298 1294Q298 1354 340 1396T443 1438Q502 1438 545 1396ZM878
1438T921 1396T964 1294Q964 1233 921 1191T819 1149Q759 1149 717 1191T674 1294Q674 1354 716 1396T819 1438Q878 1438 921 1396Z" />
<glyph unicode="&#xec;" glyph-name="igrave" horiz-adv-x="548" d="M377 1030V0H170V1030H377ZM430 1128H233L-39 1407H213L430 1128Z" />
<glyph unicode="&#xed;" glyph-name="iacute" horiz-adv-x="548" d="M377 1030V0H170V1030H377ZM334 1407H586L314 1128H117L334 1407Z" />
<glyph unicode="&#xee;" glyph-name="icircumflex" horiz-adv-x="548" d="M377 1030V0H170V1030H377ZM363 1178L271 1260L182 1178H-37L196 1416H343L584 1178H363Z" />
<glyph unicode="&#xef;" glyph-name="idieresis" horiz-adv-x="548" d="M378 1030V0H171V1030H378ZM401 1438T444 1396T487 1294Q487 1233 444 1191T342 1149Q282 1149 240 1191T197 1294Q197 1354 239 1396T342 1438Q401 1438 444 1396ZM777 1438T820 1396T863
1294Q863 1233 820 1191T718 1149Q658 1149 616 1191T573 1294Q573 1354 615 1396T718 1438Q777 1438 820 1396Z" />
<glyph unicode="&#xf0;" glyph-name="eth" horiz-adv-x="1318" d="M302 690T302 543Q302 395 406 291T659 187Q807 187 911 291T1016 543Q1016 690 912 795T659 900Q511 900 407 795ZM1228 689T1228 543Q1228 307 1062 140T659 -27Q424 -27 257 140T90 543Q90
779 257 946T659 1113Q676 1113 693 1112L527 1296L403 1208H146L428 1406L246 1600H498L578 1512L713 1600H965L672 1399L1013 990Q1038 969 1062 946Q1125 883 1164 809L1165 808Q1228 689 1228 543Z" />
<glyph unicode="&#xf1;" glyph-name="ntilde" horiz-adv-x="1139" d="M358 753V0H150V1029H358V909Q423 1085 619 1085Q786 1085 884 967T986 669V0H779V661Q779 750 714 813T559 877Q470 877 405 815Q369 778 358 753ZM655 1317T681 1317V1316Q711 1316 711 1355Q711
1381 698 1424H884Q846 1204 737 1172Q709 1164 681 1164Q607 1164 548 1221T460 1278H456Q426 1276 426 1239Q426 1214 440 1173H253Q292 1393 402 1425Q430 1433 458 1433Q531 1433 593 1375Z" />
<glyph unicode="&#xf2;" glyph-name="ograve" horiz-adv-x="1318" d="M659 1113Q895 1113 1061 946T1228 543Q1228 307 1062 140T659 -27Q424 -27 257 140T90 543Q90 779 257 946T659 1113ZM511 900T407 795T302 543Q302 395 406 291T659 187Q807 187 911 291T1016
543Q1016 690 912 795T659 900Q511 900 407 795ZM815 1128H618L346 1407H598L815 1128Z" />
<glyph unicode="&#xf3;" glyph-name="oacute" horiz-adv-x="1318" d="M659 1113Q895 1113 1061 946T1228 543Q1228 307 1062 140T659 -27Q424 -27 257 140T90 543Q90 779 257 946T659 1113ZM511 900T407 795T302 543Q302 395 406 291T659 187Q807 187 911 291T1016
543Q1016 690 912 795T659 900Q511 900 407 795ZM720 1407H972L700 1128H503L720 1407Z" />
<glyph unicode="&#xf4;" glyph-name="ocircumflex" horiz-adv-x="1318" d="M659 1113Q895 1113 1061 946T1228 543Q1228 307 1062 140T659 -27Q424 -27 257 140T90 543Q90 779 257 946T659 1113ZM511 900T407 795T302 543Q302 395 406 291T659 187Q807 187 911
291T1016 543Q1016 690 912 795T659 900Q511 900 407 795ZM749 1178L657 1260L568 1178H349L582 1416H729L970 1178H749Z" />
<glyph unicode="&#xf5;" glyph-name="otilde" horiz-adv-x="1318" d="M659 1113Q895 1113 1061 946T1228 543Q1228 307 1062 140T659 -27Q424 -27 257 140T90 543Q90 779 257 946T659 1113ZM511 900T407 795T302 543Q302 395 406 291T659 187Q807 187 911 291T1016
543Q1016 690 912 795T659 900Q511 900 407 795ZM746 1317T772 1317V1316Q802 1316 802 1355Q802 1381 789 1424H975Q937 1204 828 1172Q800 1164 772 1164Q698 1164 639 1221T551 1278H547Q517 1276 517 1239Q517 1214 531 1173H344Q383 1393 493 1425Q521 1433
549 1433Q622 1433 684 1375Z" />
<glyph unicode="&#xf6;" glyph-name="odieresis" horiz-adv-x="1318" d="M659 1113Q895 1113 1061 946T1228 543Q1228 307 1062 140T659 -27Q424 -27 257 140T90 543Q90 779 257 946T659 1113ZM511 900T407 795T302 543Q302 395 406 291T659 187Q807 187 911 291T1016
543Q1016 690 912 795T659 900Q511 900 407 795ZM530 1438T573 1396T616 1294Q616 1233 573 1191T471 1149Q411 1149 369 1191T326 1294Q326 1354 368 1396T471 1438Q530 1438 573 1396ZM906 1438T949 1396T992 1294Q992 1233 949 1191T847 1149Q787 1149 745 1191T702
1294Q702 1354 744 1396T847 1438Q906 1438 949 1396Z" />
<glyph unicode="&#xf7;" glyph-name="divide" horiz-adv-x="1112" d="M125 732H987V525H125V732ZM616 1057T658 1015T701 913Q701 852 659 810T556 768Q496 768 454 810T411 913Q411 973 453 1015T556 1057Q616 1057 658 1015ZM616 488T658 446T701 344Q701 283
659 241T556 199Q496 199 454 241T411 344Q411 404 453 446T556 488Q616 488 658 446Z" />
<glyph unicode="&#xf8;" glyph-name="oslash" horiz-adv-x="1317" d="M744 898Q739 900 658 900Q511 900 407 796T302 544Q302 396 395 293L744 898ZM573 190Q578 188 658 188Q806 188 910 292T1015 544Q1015 691 910 796L573 190ZM294 105L257 142Q90 309 90
544Q90 780 256 946T658 1113Q792 1113 852 1084L965 1281L1149 1186L1024 984L1061 946Q1227 780 1227 544Q1227 309 1061 142T658 -25Q525 -25 466 4L352 -192L167 -103L294 105Z" />
<glyph unicode="&#xf9;" glyph-name="ugrave" horiz-adv-x="1162" d="M586 -14Q391 -14 272 105T150 403V1029H358V411Q358 322 423 258Q488 194 585 194Q674 194 739 257T805 411V1029H1012V403Q1009 224 891 105Q772 -14 586 -14ZM737 1128H540L268 1407H520L737 1128Z" />
<glyph unicode="&#xfa;" glyph-name="uacute" horiz-adv-x="1162" d="M586 -14Q391 -14 272 105T150 403V1029H358V411Q358 322 423 258Q488 194 585 194Q674 194 739 257T805 411V1029H1012V403Q1009 224 891 105Q772 -14 586 -14ZM642 1407H894L622 1128H425L642 1407Z" />
<glyph unicode="&#xfb;" glyph-name="ucircumflex" horiz-adv-x="1162" d="M586 -14Q391 -14 272 105T150 403V1029H358V411Q358 322 423 258Q488 194 585 194Q674 194 739 257T805 411V1029H1012V403Q1009 224 891 105Q772 -14 586 -14ZM671 1178L579 1260L490
1178H271L504 1416H651L892 1178H671Z" />
<glyph unicode="&#xfc;" glyph-name="udieresis" horiz-adv-x="1162" d="M586 -14Q391 -14 272 105T150 403V1029H358V411Q358 322 423 258Q488 194 585 194Q674 194 739 257T805 411V1029H1012V403Q1009 224 891 105Q772 -14 586 -14ZM452 1438T495 1396T538
1294Q538 1233 495 1191T393 1149Q333 1149 291 1191T248 1294Q248 1354 290 1396T393 1438Q452 1438 495 1396ZM828 1438T871 1396T914 1294Q914 1233 871 1191T769 1149Q709 1149 667 1191T624 1294Q624 1354 666 1396T769 1438Q828 1438 871 1396Z" />
<glyph unicode="&#xfd;" glyph-name="yacute" horiz-adv-x="1139" d="M403 -346H184L458 229L75 1029H308L569 466L830 1029H1062L403 -346ZM629 1407H881L609 1128H412L629 1407Z" />
<glyph unicode="&#xfe;" glyph-name="thorn" horiz-adv-x="1374" d="M357 462Q376 368 453 291Q558 186 705 186Q853 186 957 290T1062 543Q1062 691 958 795T705 899Q558 899 453 795Q376 718 357 623V462ZM357 158V-345H150V1600H357V921Q507 1111 705 1111Q941
1111 1107 945T1274 543Q1274 308 1108 142T705 -25Q506 -25 357 158Z" />
<glyph unicode="&#xff;" glyph-name="ydieresis" horiz-adv-x="1139" d="M403 -346H184L458 229L75 1029H308L569 466L830 1029H1062L403 -346ZM440 1438T483 1396T526 1294Q526 1233 483 1191T381 1149Q321 1149 279 1191T236 1294Q236 1354 278 1396T381 1438Q440
1438 483 1396ZM816 1438T859 1396T902 1294Q902 1233 859 1191T757 1149Q697 1149 655 1191T612 1294Q612 1354 654 1396T757 1438Q816 1438 859 1396Z" />
</font>
</defs>
</svg>
